<svg enable-background="new 0 0 430 133.2" viewBox="0 0 430 133.2" xmlns="http://www.w3.org/2000/svg"><path d="m272.3 108.7c-.3 1.9-1.2 2.6-3.1 2.6h-7.4c-2 0-2.5-.7-2.2-2.6l8-45.2c.3-1.9 1.2-2.6 3.1-2.6h7.4c2 0 2.5.7 2.2 2.6z" fill="#003b48"/><path d="m295.3 75.9c2 0 2.5.7 2.2 2.6l-5.3 30.2c-.3 1.9-1.2 2.6-3.1 2.6h-7.4c-2 0-2.5-.7-2.2-2.6l5.3-30.2c.3-1.9 1.2-2.6 3.1-2.6z" fill="#003b48"/><path d="m322.4 74.9c10.3 0 14.4 5.4 12.7 15l-3.3 18.8c-.3 1.9-1.2 2.6-3.1 2.6h-7.5c-2 0-2.4-.7-2.1-2.6l3.3-18.6c.5-2.7-.6-3.7-3.4-3.7-1.2 0-2.2.1-3.1.3-.1.1-.2.1-.3.3l-3.8 21.8c-.3 1.9-1.2 2.6-3.1 2.6h-7.4c-2 0-2.5-.7-2.2-2.6l4.8-27.2c.5-2.2 1.1-3.2 3.5-4.1 4.6-1.8 9.6-2.6 15-2.6z" fill="#003b48"/><path d="m372.2 107.8c.8 2.4 0 3.5-2.8 3.5h-6.2c-3.2 0-4-.4-4.5-2.6l-1.6-8.4c-.3-1.4-1.2-2-2.7-2h-1.4l-1.8 10.3c-.3 2-1.1 2.7-3.1 2.7h-7.4c-2 0-2.5-.7-2.2-2.7l8-45c.3-2 1.2-2.7 3.1-2.7h7.4c2 0 2.4.7 2.1 2.7l-4.3 24.6h1 .4l7.4-9.8c1.4-2 2.4-2.4 5.3-2.4h6.1c2.8 0 3.3 1.1 1.6 3.3l-10 13.2c.7.7 1.3 1.8 1.6 3.1z" fill="#003b48"/><path d="m397.5 74.9c8.2 0 12.2 2.6 14.1 7.3.6 1.7-.1 2.9-2 3.7l-5.2 2.2c-2.4 1-2.5.2-3.4-1-1-1.2-2.5-1.8-4.7-1.8-3.3 0-4.4.5-4.6 1.8-.3 1.4.8 1.9 5.2 2.2 10.4.9 14.3 4.2 13 11.5s-7.6 11.4-18 11.4c-8.7 0-13.7-2.7-14.8-8.1-.3-1.7.4-2.9 2.2-3.5l5.8-1.9c2.4-.6 2.7-.3 3.4 1 .6 1.4 2.2 2.2 4.7 2.2 3.3 0 5-.7 5.3-2.1.3-1.7-.8-2.2-6.1-2.5-8.9-.5-13.4-4-12-11.6 1.4-7.2 7.1-10.8 17.1-10.8z" fill="#003b48"/><path d="m66.4 13.8c-26.6 0-48.2 21.6-48.2 48.2 0 14.4 14.2 35.5 27.2 51.8 1.3 1.6 2.7 3 4.2 4.2 3.9 2.4 13.6 5 13.6-26.1 0-.8 0-1.5 0-2.2-1.4-.5-2.4-1.2-2.4-1.2l-.5-1.8c-.4-.3-1.1-.2-1.3.3l-2.9 6c-2.5-2.9-5.9-26.9-5.9-26.9 1.4-2.2 6-8.3 6-8.3 0-15.8 10.2-22.2 10.2-22.2s10.2 6.4 10.2 22.2c0 0 4.6 6.1 6 8.3 0 0-3.4 24-5.9 26.9l-2.8-6c-.2-.5-.9-.7-1.3-.3l-.5 1.8s-1 .7-2.4 1.2v2.2c0 31.2 9.7 28.5 13.6 26.1 1.5-1.2 2.9-2.6 4.2-4.2 13-16.3 27.2-37.3 27.2-51.8-.1-26.6-21.7-48.2-48.3-48.2z" fill="#003b48"/><g fill="#00d0c9"><path d="m151 76.2c1.2 0 1.5.5 1.3 1.6l-5 28.4c-.5 2.2-1.1 2.9-3.3 3.8-4.4 1.6-8.8 2.3-13.4 2.3-9.3 0-12.9-5.2-11.4-13.9l3.7-20.5c.2-1.1.8-1.6 1.9-1.6h2.9c1.2 0 1.5.3 1.3 1.6l-3.7 20.8c-1 5.4 1.4 8.1 7.1 8.1 2.7 0 5.3-.4 7.9-1.2.7-.3 1.2-.8 1.3-1.6l4.6-26.2c.2-1.1.9-1.6 2-1.6z"/><path d="m161.8 109.6c-.2 1.1-.9 1.6-2 1.6h-2.8c-1.3 0-1.6-.3-1.4-1.6l8.3-47.1c.2-1.1.8-1.6 2-1.6h2.8c1.3 0 1.6.5 1.3 1.6z"/><path d="m187.1 68c1.2 0 1.5.5 1.3 1.6l-1.2 6.5h8.9c1.3 0 1.6.5 1.3 1.6l-.4 2.4c-.2 1.3-.7 1.6-1.8 1.6h-8.9l-2.8 15.8c-.6 3.6-.4 6 .6 7.1 1 1.2 3.2 1.7 6.6 1.7 1.3 0 1.6.3 1.4 1.6l-.4 2.4c-.3 1.3-.7 1.6-2 1.6-5.5.1-9.2-.8-11-2.9s-2.3-5.9-1.3-11.5l2.9-16h-5.6c-1.3 0-1.6-.5-1.4-1.6l.4-2.4c.2-1.1.8-1.6 1.9-1.6h5.6l1.2-6.5c.2-1.1.8-1.6 1.9-1.6h2.8z"/><path d="m221.8 75.2c1.1 0 1.6.5 1.4 1.6l-.4 2.3c-.2 1.1-.9 1.6-1.9 1.6h-2.3c-2.8 0-5.5.4-8.2 1.2-.6.3-1 .7-1.2 1.4l-4.6 26.4c-.2 1.1-.8 1.6-1.9 1.6h-2.9c-1.1 0-1.5-.5-1.3-1.6l5-28.6c.5-2.2 1.1-2.9 3.3-3.8 3.6-1.3 7.8-2 12.8-2.1z"/><path d="m226.3 88.3c1.6-9.2 6.9-13.1 17.2-13.1 4.8 0 8.6.7 11.6 2.1 2 1 2.2 1.6 1.9 3.7l-4.8 27.3c-.2 1.3-.7 1.7-2 2-4.4 1.3-9.1 1.9-13.9 1.9-9.2 0-13.1-5.8-11.6-14.5zm16.7-7.6c-6.5 0-9.7 2.4-10.8 8.4l-1.6 9.2c-.9 5.4 1.5 8.4 7 8.4 3.1 0 6.1-.4 9-1.3l3.9-22.2c.1-.8 0-1-.8-1.4-2.1-.7-4.4-1.1-6.7-1.1z"/><circle cx="293.6" cy="63" r="7.5"/><path d="m68.1 84c.6-3.6 2.8-20.1 3.7-26.9-.1-7.8-3.2-12.7-5.5-15.2-2.3 2.5-5.4 7.4-5.4 15.2.9 6.8 3.1 23.3 3.7 26.9.6.2 1.2.4 1.7.4.6 0 1.3-.1 1.8-.4z"/></g></svg>